<svg version="1.1" id="Layer_1" xmlns="http://www.w3.org/2000/svg" xmlns:xlink="http://www.w3.org/1999/xlink" x="0px" y="0px"
	 width="1261.459px" height="1312.035px" viewBox="0 0 1261.459 1312.035" enable-background="new 0 0 1261.459 1312.035"
	 xml:space="preserve">
<g id="Feet">
	<path fill="#333333" d="M1183.715,1275.919v-0.454h0.854h-0.854V1275.919l-20.948-0.06c0,0,4.073,12.574,6.336,24.534
		c2.237,11.805,9.148,11.648,15.388,11.641c6.24,0.008,13.14,0.11,15.373-11.693c2.263-11.959,5.674-24.478,5.674-24.478
		L1183.715,1275.919z"/>
	<path fill="#686868" d="M1193.715,1275.919v-0.454h0.854h-0.854V1275.919l-20.948-0.06c0,0,4.073,12.574,6.336,24.534
		c2.237,11.805,9.148,11.648,15.388,11.641c6.24,0.008,13.14,0.11,15.373-11.693c2.263-11.959,5.674-24.478,5.674-24.478
		L1193.715,1275.919z"/>
	<path fill="#333333" d="M1021.715,1275.919v-0.454h0.854h-0.854V1275.919l-20.948-0.06c0,0,4.073,12.574,6.336,24.534
		c2.237,11.805,9.148,11.648,15.388,11.641c6.24,0.008,13.14,0.11,15.373-11.693c2.263-11.959,5.674-24.478,5.674-24.478
		L1021.715,1275.919z"/>
	<path fill="#686868" d="M1031.715,1275.919v-0.454h0.854h-0.854V1275.919l-20.948-0.06c0,0,4.073,12.574,6.336,24.534
		c2.237,11.805,9.148,11.648,15.388,11.641c6.24,0.008,13.14,0.11,15.373-11.693c2.263-11.959,5.674-24.478,5.674-24.478
		L1031.715,1275.919z"/>
	<path fill="#333333" d="M280.1,1275.919v-0.454h0.854H280.1V1275.919l-20.948-0.06c0,0,4.073,12.574,6.336,24.534
		c2.237,11.805,9.148,11.648,15.388,11.641c6.24,0.008,13.14,0.11,15.373-11.693c2.263-11.959,5.674-24.478,5.674-24.478
		L280.1,1275.919z"/>
	<path fill="#686868" d="M290.1,1275.919v-0.454h0.854H290.1V1275.919l-20.948-0.06c0,0,4.073,12.574,6.336,24.534
		c2.237,11.805,9.148,11.648,15.388,11.641c6.24,0.008,13.14,0.11,15.373-11.693c2.263-11.959,5.674-24.478,5.674-24.478
		L290.1,1275.919z"/>
	<path fill="#333333" d="M58.681,1275.919v-0.454h0.854h-0.854V1275.919l-20.948-0.06c0,0,4.073,12.574,6.336,24.534
		c2.237,11.805,9.148,11.648,15.388,11.641c6.24,0.008,13.14,0.11,15.373-11.693c2.263-11.959,5.674-24.478,5.674-24.478
		L58.681,1275.919z"/>
	<path fill="#686868" d="M68.681,1275.919v-0.454h0.854h-0.854V1275.919l-20.948-0.06c0,0,4.073,12.574,6.336,24.534
		c2.237,11.805,9.148,11.648,15.388,11.641c6.24,0.008,13.14,0.11,15.373-11.693c2.263-11.959,5.674-24.478,5.674-24.478
		L68.681,1275.919z"/>
</g>
<g id="Hull">
	<path fill="#C6C6C6" d="M32.394,723.074c0-220.469,45.039-294.569,295.037-294.569h371.721
		c162.933,0,295.534,131.636,295.534,294.569v408.571H32.394V723.074z"/>
	<path fill="#686868" d="M1221.302,1131.646L1221.302,1131.646c26.142,0,40.157,13.811,40.157,37.046c0,23.234,0,109.679,0,109.679
		H259.151v-146.725H1221.302z"/>
	<path fill="#333333" d="M0,1278.37c0,0,0-86.442,0-109.679c0-23.235,14.503-37.046,40.643-37.046h-0.484h218.992v146.725H0z"/>
	<path fill="#E0E0E0" d="M259.151,723.074c0-239.831,46.243-294.569,209.177-294.569h455.947
		c162.934,0,295.262,131.636,295.262,294.569v408.571H259.151V723.074z"/>
</g>
<g id="ToastLeft">
	<path fill="#5B4736" d="M600.299,289.379c0,0-3.177-176.819-23.745-176.167c21.64-13.191,23.94-69.069-2.719-93.73
		C543.626-8.468,492.822-0.704,433.133,18.63l-36.423,1.158C335.914,4.287,286.596,2.829,256.193,29.585
		c-27.122,23.864-19.213,83.757,3.223,95.545c-20.572,0.653-6.9,193.571-6.9,193.571c0.445,4.689,19.091,14.791,39.078,11.776
		C380.21,342.606,600.478,321.87,600.299,289.379z"/>
	<path fill="#EFEDD8" d="M634.354,305.738c0,0,1.432-194.41-19.141-193.756c21.64-13.19,23.939-69.068-2.719-93.731
		c-30.209-27.95-81.013-20.186-140.7-0.852l-36.423,1.159C374.576,3.056,325.257,1.6,294.854,28.354
		c-27.123,23.866-19.214,83.757,3.221,95.545c-20.57,0.654-6.478,206.741-6.478,206.741
		C300.152,338.667,634.581,346.385,634.354,305.738z"/>
</g>
<g id="ToastRight">
	<path fill="#5B4736" d="M832.388,341.377c0,0,9.567-176.589-10.997-177.418c22.536-11.599,28.855-67.164,4.039-93.686
		c-28.121-30.054-79.351-25.966-140.273-10.981l-36.413-1.47c-59.522-19.839-108.608-24.843-140.859-0.348
		c-28.771,21.85-25.194,82.154-3.664,95.527c-20.566-0.829-20.821,192.575-20.821,192.575c0.106,4.711,17.974,16.126,38.127,14.559
		C609.039,378.616,830.229,373.796,832.388,341.377z"/>
	<path fill="#EFEDD8" d="M865.178,360.146c0,0,15.431-193.802-5.136-194.631c22.537-11.597,28.854-67.164,4.042-93.683
		c-28.119-30.053-79.351-25.967-140.278-10.982l-36.409-1.469c-59.523-19.84-108.609-24.846-140.858-0.351
		c-28.771,21.851-25.196,82.156-3.667,95.527c-20.564-0.831-21.352,205.737-21.352,205.737
		C529.474,368.923,862.479,400.706,865.178,360.146z"/>
</g>

<g id="DialLeft">
	<g>
		<polygon fill="#333333" points="107.703,1017.117 114.469,1017.148 118.381,1029.104 105.816,1020.861 		"/>
	</g>
	<g>
		<path fill="#333333" d="M114.261,1085.467c6.718-0.136,12.161-15.401,12.161-34.171c0-18.852-5.574-34.179-12.394-34.179
			c-1.092,0-2.153,0.397-3.166,1.137c-1.008-0.739-2.069-1.137-3.164-1.137c-6.818,0-12.345,15.283-12.345,34.134
			c0,18.635,5.326,33.862,12.036,34.204L114.261,1085.467z"/>
	</g>
	<g>
		<path fill="#333333" d="M107.543,1085.562"/>
	</g>
	<g>
		<path fill="#686868" d="M119.065,1051.251c0-16.091-4.734-29.158-10.45-29.497v-0.029l-0.391,0.024
			c-0.06-0.002-0.291-0.024-0.354-0.024c-1.507,0-3.026,0.872-4.327,2.431l-17.453,9.484l0.678,35.223l16.593,9.34
			c1.327,1.643,2.793,2.575,4.341,2.575c0.063,0,0.461-0.022,0.523-0.024l0.385,0.024v-0.032
			C114.332,1080.409,119.065,1067.344,119.065,1051.251z"/>
	</g>
	<g>
		<ellipse fill="#E0E0E0" cx="86.102" cy="1051.25" rx="4.946" ry="17.612"/>
	</g>
	<g>
		<path fill="#333333" d="M113.981,1085.383"/>
	</g>
	<g>
		<path fill="#333333" d="M113.356,1085.804"/>
	</g>
</g>

<g id="Tracks">
	<g>
		<path fill="#333333" d="M112.426,964.591c-2.408,0-3.811-1.952-3.811-4.356V684.312c0-2.41,1.403-4.358,3.811-4.358
			c2.408,0,3.812,1.948,3.812,4.358v275.922C116.237,962.639,114.834,964.591,112.426,964.591z"/>
	</g>
	<g>
		<path fill="#333333" d="M187.694,964.591c-2.408,0-4.764-1.952-4.764-4.356V684.312c0-2.41,2.355-4.358,4.764-4.358
			s4.764,1.948,4.764,4.358v275.922C192.458,962.639,190.103,964.591,187.694,964.591z"/>
	</g>
</g>
<g id="DialRight">
	<g>
		<polygon fill="#333333" points="189.027,1017.117 195.793,1017.148 199.704,1029.104 187.14,1020.861 		"/>
	</g>
	<g>
		<path fill="#333333" d="M195.588,1085.467c6.716-0.136,12.159-15.401,12.159-34.171c0-18.852-5.571-34.179-12.394-34.179
			c-1.094,0-2.151,0.397-3.163,1.137c-1.011-0.739-2.069-1.137-3.164-1.137c-6.82,0-12.347,15.283-12.347,34.134
			c0,18.635,5.328,33.862,12.036,34.204L195.588,1085.467z"/>
	</g>
	<g>
		<path fill="#333333" d="M188.871,1085.562"/>
	</g>
	<g>
		<path fill="#686868" d="M199.098,1051.251c0-16.091-4.734-29.158-10.451-29.497v-0.029l0.257,0.024
			c-0.06-0.002,0.034-0.024-0.03-0.024c-1.509,0-2.867,0.872-4.168,2.431l-17.373,9.484l0.718,35.223l16.616,9.34
			c1.327,1.643,2.802,2.575,4.353,2.575c0.06,0-0.179-0.022-0.119-0.024l-0.253,0.028v-0.034
			C194.364,1080.409,199.098,1067.344,199.098,1051.251z"/>
	</g>
	<g>
		<ellipse fill="#E0E0E0" cx="167.428" cy="1051.25" rx="4.944" ry="17.612"/>
	</g>
	<g>
		<path fill="#333333" d="M195.307,1085.383"/>
	</g>
	<g>
		<path fill="#333333" d="M194.68,1085.804"/>
	</g>
</g>
<g id="HandleLeft">
	<g>
		<polygon fill="#333333" points="136.975,739.122 105.544,739.122 44.032,730.596 106.477,725.661 		"/>
	</g>
	<g>
		<polygon fill="#686868" points="73.076,731.501 43.827,731.501 43.827,706.729 110.835,706.729 		"/>
	</g>
	<g>
		<polygon fill="#E0E0E0" points="139.104,739.497 72.41,730.782 72.41,706.729 139.104,706.729 		"/>
	</g>
</g>
<g id="HandleRight">
	<g>
		<polygon fill="#333333" points="212.488,739.122 181.059,739.122 119.546,730.573 181.993,725.653 		"/>
	</g>
	<g>
		<polygon fill="#686868" points="148.59,731.501 120.048,731.501 120.048,706.729 186.349,706.729 		"/>
	</g>
	<g>
		<polygon fill="#E0E0E0" points="215.324,739.454 148.631,730.739 148.631,706.729 215.324,706.729 		"/>
	</g>
</g>
<g>
	<circle fill="#333333" cx="721.774" cy="806.825" r="31.646"/>
	<path fill="none" stroke="#333333" stroke-width="16" stroke-miterlimit="10" d="M721.774,742.48
		c42.489,0,81.962,6.098,111.724,16.344c35.859,12.344,57.906,31.057,57.906,48c0,17.658-23.366,37.537-61.874,50.295
		c-29.112,9.646-67.422,14.681-107.756,14.681c-41.354,0-80.514-4.726-109.947-14.786c-37.248-12.732-59.684-32.868-59.684-50.189
		c0-16.806,21.051-35.374,56.405-47.7C638.422,748.709,678.869,742.48,721.774,742.48z"/>
	<path fill="none" stroke="#333333" stroke-width="16" stroke-miterlimit="10" d="M665.761,774.838
		c21.227-36.807,46.229-67.955,69.972-88.619c28.608-24.896,55.833-34.646,70.511-26.182c15.297,8.82,20.844,38.994,12.659,78.725
		c-6.188,30.039-20.966,65.74-41.115,100.682c-20.659,35.822-44.315,67.384-67.736,87.855
		c-29.637,25.908-58.288,35.283-73.293,26.63c-14.559-8.396-20.127-35.907-13.143-72.692
		C629.517,850.156,644.326,812.006,665.761,774.838z"/>
	<path fill="none" stroke="#333333" stroke-width="16" stroke-miterlimit="10" d="M665.814,839.536
		c-21.288-36.772-35.788-73.988-41.832-104.879c-7.282-37.218-2.133-65.675,12.531-74.163c15.281-8.848,44.192,1.415,74.526,28.349
		c22.935,20.363,46.484,50.994,66.693,85.901c20.719,35.789,36.248,72.047,42.287,102.562c7.645,38.614,1.457,68.119-13.532,76.797
		c-14.546,8.42-41.161-0.494-69.542-24.918C712.966,908.551,687.312,876.668,665.814,839.536z"/>
</g>
<g>
	<circle fill="#686868" cx="731.774" cy="806.825" r="31.646"/>
	<path fill="none" stroke="#686868" stroke-width="16" stroke-miterlimit="10" d="M731.774,742.48
		c42.489,0,81.962,6.098,111.724,16.344c35.859,12.344,57.906,31.057,57.906,48c0,17.658-23.366,37.537-61.874,50.295
		c-29.112,9.646-67.422,14.681-107.756,14.681c-41.354,0-80.514-4.726-109.947-14.786c-37.248-12.732-59.684-32.868-59.684-50.189
		c0-16.806,21.051-35.374,56.405-47.7C648.422,748.709,688.869,742.48,731.774,742.48z"/>
	<path fill="none" stroke="#686868" stroke-width="16" stroke-miterlimit="10" d="M675.761,774.838
		c21.227-36.807,46.229-67.955,69.972-88.619c28.608-24.896,55.833-34.646,70.511-26.182c15.297,8.82,20.844,38.994,12.659,78.725
		c-6.188,30.039-20.966,65.74-41.115,100.682c-20.659,35.822-44.315,67.384-67.736,87.855
		c-29.637,25.908-58.288,35.283-73.293,26.63c-14.559-8.396-20.127-35.907-13.143-72.692
		C639.517,850.156,654.326,812.006,675.761,774.838z"/>
	<path fill="none" stroke="#686868" stroke-width="16" stroke-miterlimit="10" d="M675.814,839.536
		c-21.288-36.772-35.788-73.988-41.831-104.879c-7.283-37.218-2.134-65.675,12.53-74.163c15.281-8.848,44.192,1.415,74.526,28.349
		c22.935,20.363,46.484,50.994,66.693,85.901c20.719,35.789,36.248,72.047,42.287,102.562c7.645,38.614,1.457,68.119-13.532,76.797
		c-14.546,8.42-41.161-0.494-69.542-24.918C722.966,908.551,697.312,876.668,675.814,839.536z"/>
</g>
</svg>
